<?xml version="1.0" encoding="UTF-8" standalone="no"?>
<svg
   xmlns:dc="http://purl.org/dc/elements/1.1/"
   xmlns:cc="http://creativecommons.org/ns#"
   xmlns:rdf="http://www.w3.org/1999/02/22-rdf-syntax-ns#"
   xmlns:svg="http://www.w3.org/2000/svg"
   xmlns="http://www.w3.org/2000/svg"
   xmlns:sodipodi="http://sodipodi.sourceforge.net/DTD/sodipodi-0.dtd"
   xmlns:inkscape="http://www.inkscape.org/namespaces/inkscape"
   viewBox="0 -256 1792 1792"
   id="svg2"
   version="1.1"
   inkscape:version="0.92.3 (2405546, 2018-03-11)"
   width="100%"
   height="100%"
   sodipodi:docname="upload_button.svg">
  <metadata
     id="metadata12">
    <rdf:RDF>
      <cc:Work
         rdf:about="">
        <dc:format>image/svg+xml</dc:format>
        <dc:type
           rdf:resource="http://purl.org/dc/dcmitype/StillImage" />
        <dc:title />
      </cc:Work>
    </rdf:RDF>
  </metadata>
  <defs
     id="defs10" />
  <sodipodi:namedview
     pagecolor="#ffffff"
     bordercolor="#666666"
     borderopacity="1"
     objecttolerance="10"
     gridtolerance="10"
     guidetolerance="10"
     inkscape:pageopacity="0"
     inkscape:pageshadow="2"
     inkscape:window-width="1920"
     inkscape:window-height="1029"
     id="namedview8"
     showgrid="false"
     inkscape:zoom="0.39"
     inkscape:cx="453.69232"
     inkscape:cy="896.00001"
     inkscape:window-x="0"
     inkscape:window-y="0"
     inkscape:window-maximized="1"
     inkscape:current-layer="layer1" />
  <g
     inkscape:groupmode="layer"
     id="layer2"
     inkscape:label="base"
     style="display:none"
     sodipodi:insensitive="true">
    <path
       style="opacity:0.92000002;fill:currentColor"
       inkscape:connector-curvature="0"
       id="path6-6"
       d="m 1266.9831,933.4237 v 64 q 0,14 -9,23 -9,9 -23,9 H 530.98311 q -14,0 -23,-9 -9,-9 -9,-23 v -64 q 0,-14 9,-23 9,-9 23,-9 h 703.99999 q 14,0 23,9 9,9 9,23 z m 0,-256 v 64 q 0,14 -9,23 -9,9 -23,9 H 530.98311 q -14,0 -23,-9 -9,-9 -9,-23 v -64 q 0,-14 9,-23 9,-9 23,-9 h 703.99999 q 14,0 23,9 9,9 9,23 z m -895.99999,608 H 1394.9831 v -768 h -416 q -40,0 -68,-28 -28,-28 -28,-68 v -416 H 370.98311 Z m 639.99999,-896 h 299 l -299,-299 z m 512,128 v 800 q 0,40 -28,68 -28,28 -68,28 H 338.98311 q -40,0 -68,-28 -28,-28 -28,-68 V -26.57631 q 0,-40 28,-68 28,-28 68,-28 H 882.9831 q 40,0 88,20 48,20 76,48 l 408.0001,408.00001 q 28,28 48,76 20,48 19.9999,88 z" />
  </g>
  <g
     style="display:none"
     inkscape:label="base copy"
     id="g4655"
     inkscape:groupmode="layer"
     sodipodi:insensitive="true">
    <path
       style="opacity:0.92000002;fill:currentColor"
       d="m 1266.9831,933.4237 v 64 q 0,14 -9,23 -9,9 -23,9 H 530.98311 q -14,0 -23,-9 -9,-9 -9,-23 v -64 q 0,-14 9,-23 9,-9 23,-9 h 703.99999 q 14,0 23,9 9,9 9,23 z"
       id="path4681"
       inkscape:connector-curvature="0" />
    <path
       style="opacity:0.92000002;fill:currentColor"
       d="m 1266.9831,677.4237 v 64 q 0,14 -9,23 -9,9 -23,9 H 530.98311 q -14,0 -23,-9 -9,-9 -9,-23 v -64 q 0,-14 9,-23 9,-9 23,-9 h 703.99999 q 14,0 23,9 9,9 9,23 z"
       id="path4679"
       inkscape:connector-curvature="0" />
  </g>
  <g
     inkscape:groupmode="layer"
     id="layer4"
     inkscape:label="fons"
     style="display:inline"
     sodipodi:insensitive="true">
    <path
       style="display:inline;opacity:0.92000002;fill:currentColor"
       d="m 1522.9831,517.4237 v 800 q 0,40 -28,68 -28,28 -68,28 H 338.98311 q -40,0 -68,-28 -28,-28 -28,-68 V -26.57631 q 0,-40 28,-68 28,-28 68,-28 H 882.9831 q 40,0 88,20 48,20 76,48 l 408.0001,408.00001 q 28,28 48,76 20,48 19.9999,88 z"
       id="path4653"
       inkscape:connector-curvature="0" />
    <path
       style="display:inline;opacity:0.92000002;fill:currentColor"
       d="m 1010.9831,389.4237 h 299 l -299,-299 z"
       id="path4675"
       inkscape:connector-curvature="0" />
    <path
       style="fill:#ffffff;fill-opacity:1;stroke-width:2.56410265"
       d="M 1011.8974,497.41861 V 348.068 l 147.4359,147.41917 c 81.0898,81.08055 147.4359,148.28833 147.4359,149.35062 0,1.06228 -66.3461,1.93143 -147.4359,1.93143 h -147.4359 z"
       id="path4686"
       inkscape:connector-curvature="0"
       transform="translate(0,-256)" />
    <path
       style="display:inline;opacity:0.92000002;fill:currentColor"
       d="M 370.98311,1285.4237 H 1394.9831 v -768 h -416 q -40,0 -68,-28 -28,-28 -28,-68 v -416 H 370.98311 Z"
       id="path4677"
       inkscape:connector-curvature="0" />
    <path
       style="fill:#ffffff;fill-opacity:1;stroke-width:2.56410265"
       d="M 370.8718,901.89743 V 262.15384 h 256.35503 256.355 l 0.69628,221.15384 0.69626,221.15385 7.21715,14.10256 c 9.46272,18.49049 26.98628,36.11457 44.96839,45.22634 l 14.48113,7.33777 221.15386,0.69625 221.1538,0.69628 V 1157.0809 1541.641 H 882.41027 370.8718 Z"
       id="path4689"
       inkscape:connector-curvature="0"
       transform="translate(0,-256)" />
  </g>
  <g
     inkscape:groupmode="layer"
     id="g4659"
     inkscape:label="barres"
     style="display:inline">
    <path
       style="opacity:0.92000002;fill:currentColor"
       d="m 1266.9831,867.4237 v 64 q 0,14 -9,23 -9,9 -23,9 H 530.98311 q -14,0 -23,-9 -9,-9 -9,-23 v -64 q 0,-14 9,-23 9,-9 23,-9 h 703.99999 q 14,0 23,9 9,9 9,23 z"
       id="path4669"
       inkscape:connector-curvature="0" />
    <path
       style="opacity:0.92000002;fill:currentColor"
       d="m 1261.8549,1049.8852 v 64 q 0,14 -9,23 -9,9 -23,9 h -704 q -14,0 -23,-9 -9,-9 -9,-23 v -64 q 0,-14 9,-23 9,-9 23,-9 h 704 q 14,0 23,9 9,9 9,23 z"
       id="path4667"
       inkscape:connector-curvature="0" />
    <path
       inkscape:connector-curvature="0"
       id="path4671"
       d="m 1269.5472,685.78264 v 64 q 0,14 -9,23 -9,9 -23,9 H 533.54721 q -14,0 -23,-9 -9,-9 -9,-23 v -64 q 0,-14 9,-23 9,-9 23,-9 h 703.99999 q 14,0 23,9 9,9 9,23 z"
       style="opacity:0.92000002;fill:currentColor" />
  </g>
  <g
     inkscape:groupmode="layer"
     id="layer1"
     inkscape:label="fletxa"
     style="display:inline">
    <path
       id="path4-6"
       d="m 611.09974,175.19258 c -6.79,5.73002 -35.21,33.30002 -63.21,61.52002 -40.52,40.93998 -50.27,51.54998 -48.15,53.66998 1.91,1.91 13.15,2.97 36.49,3.39 l 33.94,0.64 v 44.97 c 0,37.33 0.64,45.82 3.39,49.85 3.18,4.67 3.82,4.67 54.73,4.67 45.39,0 51.97,-0.42 54.52,-3.61 2.33,-2.54 3.18,-14.42 3.6,-49.85 l 0.64,-46.24 h 28.21 c 34.15,0 41.58,-1.27 41.58,-6.58 0,-4.03 -102.67,-107.12 -117.09,-117.73 -9.77,-7.21 -14.86,-6.36 -28.65,5.3 z"
       inkscape:connector-curvature="0"
       style="opacity:0.92000002;fill:currentColor"
       inkscape:label="path4-6" />
  </g>
</svg>
